<?xml version="1.0" encoding="UTF-8"?>
<svg version="1.1" xmlns="http://www.w3.org/2000/svg" width="4096" height="2607">
<path d="M0 0 C1351.68 0 2703.36 0 4096 0 C4096 860.31 4096 1720.62 4096 2607 C2744.32 2607 1392.64 2607 0 2607 C0 1746.69 0 886.38 0 0 Z " fill="#F8F8F8" transform="translate(0,0)"/>
<path d="M0 0 C292.53793103 0 292.53793103 0 337 42 C338.12535156 43.02867188 338.12535156 43.02867188 339.2734375 44.078125 C356.53948806 60.43543605 367.68610045 83.11494767 373.8125 105.8125 C374.0197168 106.57667236 374.22693359 107.34084473 374.44042969 108.12817383 C382.57554111 139.96554285 375.60366502 173.23329072 359.17382812 201.09228516 C346.22232293 222.14117483 326.87730056 238.02500869 305 249 C307.79589849 250.86393233 310.27492839 251.82151303 313.4440918 252.85058594 C346.4720876 263.6319176 374.26547012 287.03505778 390.03173828 318.02832031 C394.27355718 326.66597271 397.3098588 335.54052398 399.8125 344.8125 C400.1233252 345.95875854 400.1233252 345.95875854 400.44042969 347.12817383 C405.27197361 366.03678354 404.4216437 387.87954933 401 407 C400.8546582 407.82886719 400.70931641 408.65773438 400.55957031 409.51171875 C397.9268741 423.91009725 393.35767207 436.83888493 387 450 C386.65533691 450.71833008 386.31067383 451.43666016 385.95556641 452.17675781 C379.13252697 466.18317324 369.80141422 477.88045156 359 489 C358.19433594 489.84304688 357.38867188 490.68609375 356.55859375 491.5546875 C344.11243754 503.74763552 328.00330925 511.55197753 312 518 C310.91074219 518.49628906 309.82148437 518.99257812 308.69921875 519.50390625 C294.69754122 525.16667552 279.3067642 527.48530674 264.4375 529.75 C262.50801514 530.04753174 262.50801514 530.04753174 260.53955078 530.35107422 C174.59162402 542.87108997 86.85503387 534 0 534 C0 357.78 0 181.56 0 0 Z " fill="#010101" transform="translate(552,1671)"/>
<path d="M0 0 C1.24506821 -0.00855011 1.24506821 -0.00855011 2.51528931 -0.01727295 C4.26490025 -0.02665754 6.01452834 -0.03323064 7.76416016 -0.03710938 C10.37305731 -0.04672388 12.98113371 -0.07777223 15.58984375 -0.109375 C30.7710667 -0.20602496 45.72265587 1.30221423 60.2265625 6.015625 C61.0513208 6.27496826 61.8760791 6.53431152 62.72583008 6.80151367 C65.17087339 7.58163597 67.60593922 8.38666794 70.0390625 9.203125 C70.75191406 9.43902344 71.46476562 9.67492188 72.19921875 9.91796875 C101.80582638 19.86174399 129.13051923 39.3339201 148.0390625 64.203125 C148.89645577 65.27528344 149.75456072 66.34687305 150.61328125 67.41796875 C169.21971231 91.1250821 179.37212295 120.13631845 186.0390625 149.203125 C186.33055176 150.45440186 186.33055176 150.45440186 186.62792969 151.73095703 C191.67249851 173.77123284 193.55842367 196.07846753 193.43017578 218.6550293 C193.41398018 222.03279433 193.43021124 225.40937817 193.44921875 228.78710938 C193.46838927 248.79776784 190.83350866 267.80545549 186.0390625 287.203125 C185.77738281 288.30914063 185.51570313 289.41515625 185.24609375 290.5546875 C178.6470255 316.02151427 166.51907811 340.96504428 151.0390625 362.203125 C150.61157715 362.7914209 150.1840918 363.3797168 149.74365234 363.98583984 C130.28018948 390.44432271 104.09450271 409.15618962 73.30517578 420.37597656 C71.27830667 421.11579908 69.26610939 421.88552831 67.25390625 422.6640625 C63.55428161 424.01608479 59.84027536 425.18107944 56.0390625 426.203125 C54.9564917 426.49727295 54.9564917 426.49727295 53.85205078 426.79736328 C39.85597519 430.36865484 25.76863555 430.59897041 11.4140625 430.640625 C10.51465942 430.6467984 9.61525635 430.6529718 8.68859863 430.65933228 C-8.2325635 430.73390625 -25.37732164 429.47554826 -41.6484375 424.515625 C-42.50526123 424.26143799 -43.36208496 424.00725098 -44.24487305 423.74536133 C-72.46295974 415.04584784 -96.30591647 398.98238675 -116.9609375 378.203125 C-117.50967529 377.67291748 -118.05841309 377.14270996 -118.6237793 376.59643555 C-122.76653909 372.55921655 -126.39559289 368.35028297 -129.8359375 363.703125 C-130.3513208 363.00952881 -130.8667041 362.31593262 -131.39770508 361.60131836 C-136.41850907 354.74061658 -140.80494513 347.61220444 -144.9609375 340.203125 C-145.3331543 339.5529541 -145.70537109 338.9027832 -146.08886719 338.23291016 C-167.61674252 300.45359953 -172.4483988 260.35310195 -172.93164062 217.73822021 C-172.96008658 215.27675632 -172.99323527 212.81539504 -173.02734375 210.35400391 C-173.53346657 171.73715853 -167.86379628 136.29578927 -150.9609375 101.203125 C-150.56277832 100.37409668 -150.16461914 99.54506836 -149.75439453 98.69091797 C-143.0570329 84.92975 -135.09876683 72.466063 -125.9609375 60.203125 C-125.54150879 59.63432617 -125.12208008 59.06552734 -124.68994141 58.47949219 C-120.3327609 52.61016983 -115.6509939 47.77212724 -109.9609375 43.203125 C-108.97609375 42.38199219 -107.99125 41.56085938 -106.9765625 40.71484375 C-77.13953046 16.19089338 -38.91657781 0.21510165 0 0 Z " fill="#F8F8F8" transform="translate(3344.9609375,1722.796875)"/>
<path d="M0 0 C2.60374914 0.01079173 5.20681744 -0.00000847 7.81054688 -0.01269531 C17.17313657 -0.02057479 26.12325668 0.43819481 35.34179688 2.26074219 C36.62054687 2.49535156 37.89929687 2.72996094 39.21679688 2.97167969 C65.18119843 8.48911502 89.26604456 19.12995837 110.34179688 35.26074219 C111.28667969 35.98003906 112.2315625 36.69933594 113.20507812 37.44042969 C152.67335613 68.62665225 171.70749738 114.9418159 180.34179688 163.26074219 C180.48167526 164.0329863 180.62155365 164.80523041 180.76567078 165.60087585 C183.62649614 181.96354187 183.87280671 198.25256892 183.84277344 214.80737305 C183.83807544 217.80582953 183.85186277 220.80322507 183.88378906 223.80151367 C184.43116068 275.86533445 170.20959565 327.02978465 137.34179688 368.26074219 C136.65859375 369.15921875 135.97539063 370.05769531 135.27148438 370.98339844 C111.58235018 401.35968675 73.95004942 421.62571585 36.34179688 428.26074219 C35.36460693 428.43951904 34.38741699 428.6182959 33.38061523 428.80249023 C23.84145992 430.37172917 14.46192879 430.60039587 4.81225586 430.57641602 C2.17519278 430.57326714 -0.46073163 430.59676959 -3.09765625 430.62207031 C-14.8743811 430.66550559 -26.10133513 429.49750718 -37.65820312 427.26074219 C-38.40761673 427.11578308 -39.15703033 426.97082397 -39.92915344 426.82147217 C-63.99431816 422.08606826 -86.28291161 411.15824278 -105.65820312 396.26074219 C-106.56570313 395.57753906 -107.47320313 394.89433594 -108.40820312 394.19042969 C-122.15027043 383.4339901 -134.02994113 370.79080048 -143.65820312 356.26074219 C-144.0882666 355.61637207 -144.51833008 354.97200195 -144.96142578 354.30810547 C-151.33185 344.67530224 -156.76610888 334.71526797 -161.65820312 324.26074219 C-162.16867187 323.19210937 -162.67914062 322.12347656 -163.20507812 321.02246094 C-171.86385418 301.95918785 -176.99082724 281.97330497 -179.65820312 261.26074219 C-179.75625244 260.53902832 -179.85430176 259.81731445 -179.95532227 259.07373047 C-183.85194125 227.97964301 -185.11305883 190.98585532 -178.65820312 160.26074219 C-178.48659668 159.38820801 -178.31499023 158.51567383 -178.13818359 157.61669922 C-170.16432128 117.36259 -152.21651175 76.41290612 -122.65820312 47.26074219 C-121.88605469 46.48988281 -121.11390625 45.71902344 -120.31835938 44.92480469 C-88.27262359 14.53201035 -43.45875975 -0.21383947 0 0 Z " fill="#F8F8F8" transform="translate(1311.658203125,1722.7392578125)"/>
<path d="M0 0 C41.58 0 83.16 0 126 0 C126 307.23 126 614.46 126 931 C84.42 931 42.84 931 0 931 C0 623.77 0 316.54 0 0 Z " fill="#010101" transform="translate(858,446)"/>
<path d="M0 0 C34.98 0 69.96 0 106 0 C106 307.56 106 615.12 106 932 C71.02 932 36.04 932 0 932 C0 624.44 0 316.88 0 0 Z " fill="#020202" transform="translate(2877,446)"/>
<path d="M0 0 C1.03119965 0.00149048 2.06239929 0.00298096 3.12484741 0.0045166 C25.84265952 0.0634411 48.15743695 1.36200826 70.1875 7.3125 C71.53908203 7.66803955 71.53908203 7.66803955 72.91796875 8.03076172 C124.03506827 21.62047126 172.1703501 49.75569614 204.01904297 92.73828125 C205.08199898 94.1703624 206.16680906 95.58615715 207.25390625 97 C228.39682019 125.01970009 243.28820725 159.19233426 251.1875 193.3125 C251.39181641 194.18890137 251.59613281 195.06530273 251.80664062 195.96826172 C257.8207933 222.39146877 260.55685315 248.45267 260.5625 275.5 C260.56440338 276.47398743 260.56630676 277.44797485 260.56826782 278.45147705 C260.56418275 296.87826599 259.27171042 315.16667575 256.375 333.375 C256.11734863 335.00284424 256.11734863 335.00284424 255.85449219 336.66357422 C245.21559765 401.61031413 213.15777526 464.529737 159.22216797 503.70581055 C128.8321849 525.43502634 94.69969292 539.63278889 58.1875 547.3125 C57.45160645 547.48652344 56.71571289 547.66054687 55.95751953 547.83984375 C38.43224894 551.79135768 20.17867089 551.75493053 2.3125 551.75 C1.14796295 551.75073517 -0.0165741 551.75147034 -1.21640015 551.75222778 C-19.56698316 551.72186504 -36.94139068 550.79976296 -54.8125 546.3125 C-55.87017578 546.05017578 -56.92785156 545.78785156 -58.01757812 545.51757812 C-78.12758445 540.37602531 -97.52488848 533.12945584 -115.8125 523.3125 C-116.54065918 522.92835938 -117.26881836 522.54421875 -118.01904297 522.1484375 C-135.44348277 512.93269625 -150.87819343 501.77457667 -165.44140625 488.4609375 C-167.55013367 486.55022896 -169.70030105 484.70949852 -171.875 482.875 C-209.5653389 449.84893458 -234.27298727 394.89383827 -243.4375 346.75 C-243.64117188 345.71681641 -243.84484375 344.68363281 -244.0546875 343.61914062 C-244.65937035 340.52014101 -245.24015044 337.41762076 -245.8125 334.3125 C-245.98491211 333.4064502 -246.15732422 332.50040039 -246.33496094 331.56689453 C-249.63666674 313.23373863 -250.18540246 294.92768761 -250.18310547 276.3347168 C-250.18745877 272.41214895 -250.22385947 268.4907282 -250.26171875 264.56835938 C-250.57230936 193.7428852 -223.63914032 121.30877976 -173.8125 70.3125 C-172.62333984 69.04792969 -172.62333984 69.04792969 -171.41015625 67.7578125 C-165.30047152 61.40057166 -158.65695678 55.99112837 -151.63476562 50.69482422 C-149.87186802 49.35753506 -148.13060071 47.99581598 -146.390625 46.62890625 C-104.6167487 14.3293357 -52.1950499 -0.18646514 0 0 Z M-118.8125 108.3125 C-119.864375 109.22128906 -119.864375 109.22128906 -120.9375 110.1484375 C-148.67759837 135.69244474 -165.66959917 177.96376814 -173.31542969 214.02197266 C-173.62726455 215.45892486 -173.95839017 216.89196896 -174.31738281 218.31787109 C-177.76821506 232.29876719 -178.12510494 246.55826973 -178 260.875 C-177.99106898 262.58137905 -177.98236531 264.28775931 -177.97387695 265.99414062 C-177.94209777 271.10059655 -177.88181257 276.20643118 -177.8125 281.3125 C-177.80283203 282.07584656 -177.79316406 282.83919312 -177.78320312 283.62567139 C-177.01939806 341.74646269 -162.08515517 397.58247706 -120.8125 440.3125 C-119.96171875 441.22644531 -119.1109375 442.14039062 -118.234375 443.08203125 C-102.4025161 459.64860217 -82.67661409 471.23111981 -61.8125 480.3125 C-60.43578125 480.91191406 -60.43578125 480.91191406 -59.03125 481.5234375 C-53.03790328 483.89422338 -46.81137061 485.40540008 -40.5625 486.9375 C-39.72944336 487.1439917 -38.89638672 487.3504834 -38.03808594 487.56323242 C-23.67517652 490.9424982 -9.55874658 491.71942302 5.125 491.6875 C6.02491669 491.68728851 6.92483337 491.68707703 7.85202026 491.68685913 C28.08119503 491.63951344 47.12298162 489.29329795 66.1875 482.3125 C67.41210938 481.87164063 68.63671875 481.43078125 69.8984375 480.9765625 C88.79290299 473.80696448 105.90365927 463.54172291 121.1875 450.3125 C121.7045752 449.86922363 122.22165039 449.42594727 122.75439453 448.96923828 C156.2391345 420.05380157 177.70876888 374.0567649 184.75378418 330.93841553 C185.05143948 329.13627309 185.36441914 327.33661492 185.69024658 325.53935242 C187.15525527 316.9876981 187.51419552 308.63025431 187.5234375 299.96875 C187.52989918 298.50980513 187.53662972 297.05086143 187.54360962 295.59191895 C187.55550246 292.54285705 187.55929974 289.49390762 187.55810547 286.44482422 C187.5579445 283.38500928 187.57159122 280.32580315 187.59912109 277.26611328 C187.83051011 251.15316272 186.25154635 225.61780499 179.1875 200.3125 C178.98431152 199.55807617 178.78112305 198.80365234 178.57177734 198.02636719 C165.56502042 150.09855637 138.81837415 108.78435427 95.37792969 83.53271484 C80.01249598 74.97314756 63.40772108 68.00254738 46.1875 64.3125 C45.32640625 64.11914062 44.4653125 63.92578125 43.578125 63.7265625 C-14.28828969 51.3266165 -75.25310254 69.23004061 -118.8125 108.3125 Z " fill="#000000" transform="translate(1307.8125,1661.6875)"/>
<path d="M0 0 C1.03119965 0.00149048 2.06239929 0.00298096 3.12484741 0.0045166 C25.1674342 0.06168973 46.82689728 1.24336617 68.25830078 6.81396484 C70.11248248 7.2931143 71.97610654 7.73526155 73.83984375 8.17578125 C134.6205099 23.15646661 186.89184372 62.04158377 219.625 115.1875 C248.73094746 164.09569492 260.44766559 219.93828992 260.375 276.3125 C260.37406342 277.25715118 260.37312683 278.20180237 260.37216187 279.17507935 C260.26338606 329.94658852 249.64810495 377.64836239 227.1875 423.3125 C226.82269531 424.0559668 226.45789062 424.79943359 226.08203125 425.56542969 C206.54919287 464.87433144 174.1017615 496.74798918 136.1875 518.3125 C135.55569824 518.67698242 134.92389648 519.04146484 134.27294922 519.41699219 C121.47967428 526.7394375 107.94939823 532.09456643 94.1875 537.3125 C93.27589111 537.66602539 92.36428223 538.01955078 91.42504883 538.38378906 C84.60313509 540.96727932 77.72769529 542.7974152 70.625 544.4375 C69.56603516 544.68886719 68.50707031 544.94023437 67.41601562 545.19921875 C64.34377803 545.92232088 61.26714956 546.62172786 58.1875 547.3125 C57.01405029 547.58658691 57.01405029 547.58658691 55.81689453 547.86621094 C39.98072957 551.34318617 23.96519389 551.65971402 7.82128906 551.62817383 C4.45604901 551.6250174 1.09169456 551.64855774 -2.2734375 551.67382812 C-16.35983499 551.71513778 -29.92821876 550.68897711 -43.8125 548.3125 C-45.53629883 548.02234009 -45.53629883 548.02234009 -47.29492188 547.72631836 C-49.94094243 547.24479152 -52.56265043 546.71019206 -55.1875 546.125 C-56.12118408 545.9177832 -57.05486816 545.71056641 -58.0168457 545.49707031 C-96.89011988 536.47378429 -134.20057994 517.4816246 -163.56640625 490.37109375 C-165.52204276 488.57871038 -167.52294258 486.88210056 -169.5625 485.1875 C-219.06693908 441.77130847 -244.37304976 370.81977679 -249.375 306.6953125 C-252.94727378 249.20267542 -247.78901419 192.47784154 -221.8125 140.3125 C-221.38855957 139.45366211 -220.96461914 138.59482422 -220.52783203 137.70996094 C-208.29358758 113.11631353 -193.07701129 89.98172791 -173.8125 70.3125 C-172.99523438 69.44496094 -172.17796875 68.57742188 -171.3359375 67.68359375 C-165.25241995 61.35237597 -158.62779516 55.96913398 -151.63476562 50.69482422 C-149.87186802 49.35753506 -148.13060071 47.99581598 -146.390625 46.62890625 C-104.6167487 14.3293357 -52.1950499 -0.18646514 0 0 Z M-120.8125 110.3125 C-121.67230469 111.15554688 -122.53210937 111.99859375 -123.41796875 112.8671875 C-162.75216278 153.03554878 -178.50350402 212.1705584 -177.9375 266.80078125 C-177.90919219 269.1537032 -177.87830774 271.50656974 -177.84570312 273.85943604 C-177.81154157 276.38330959 -177.7825271 278.90721035 -177.75390625 281.43115234 C-177.0212297 341.84819056 -161.89692796 398.78892622 -118.8125 443.3125 C-116.25037754 445.78452584 -113.56784903 448.05895295 -110.8125 450.3125 C-109.82765625 451.13492188 -108.8428125 451.95734375 -107.828125 452.8046875 C-93.83324617 464.29036785 -78.42758146 473.18341344 -61.8125 480.3125 C-60.89855469 480.70953125 -59.98460938 481.1065625 -59.04296875 481.515625 C-53.04797613 483.89474018 -46.81563593 485.4043543 -40.5625 486.9375 C-39.72944336 487.1439917 -38.89638672 487.3504834 -38.03808594 487.56323242 C-23.42090207 491.00232319 -9.00962871 491.75802825 5.9375 491.75 C7.35514145 491.75010574 7.35514145 491.75010574 8.80142212 491.75021362 C55.11421648 491.61782575 95.40389929 474.69097682 129.1875 443.3125 C130.16976562 442.42884766 130.16976562 442.42884766 131.171875 441.52734375 C149.25326122 424.52934637 161.32975515 400.72687206 171.1875 378.3125 C171.52120605 377.55791504 171.85491211 376.80333008 172.19873047 376.02587891 C180.3028674 357.38179942 184.58853827 337.41286573 187.1875 317.3125 C187.35878418 316.14009766 187.53006836 314.96769531 187.70654297 313.75976562 C188.35297369 308.53467981 188.38657061 303.32183223 188.42578125 298.0625 C188.4355751 296.98374603 188.44536896 295.90499207 188.45545959 294.79354858 C188.62680108 270.99829965 188.52469389 247.77322926 184.1875 224.3125 C183.97851074 223.15830566 183.76952148 222.00411133 183.55419922 220.81494141 C177.8732239 190.46108601 168.076904 158.22407043 149.1875 133.3125 C148.44371094 132.28898437 147.69992187 131.26546875 146.93359375 130.2109375 C137.81867044 117.83736876 127.51584516 106.54191687 115.1875 97.3125 C114.66607422 96.91611328 114.14464844 96.51972656 113.60742188 96.11132812 C91.20375586 79.15648761 65.81038179 68.39628569 38.1875 63.3125 C37.3927124 63.14258545 36.5979248 62.9726709 35.77905273 62.79760742 C26.12917298 60.90938616 16.54236181 60.95761422 6.75 61 C5.85977142 61.00215515 4.96954285 61.0043103 4.05233765 61.00653076 C-42.60548309 61.18807666 -87.17373723 77.24831237 -120.8125 110.3125 Z " fill="#000000" transform="translate(3349.8125,1661.6875)"/>
<path d="M0 0 C34.65 0 69.3 0 105 0 C105 307.23 105 614.46 105 931 C70.35 931 35.7 931 0 931 C0 623.77 0 316.54 0 0 Z " fill="#010101" transform="translate(3084,446)"/>
<path d="M0 0 C127.05 0 254.1 0 385 0 C385 20.79 385 41.58 385 63 C281.05 63 177.1 63 70 63 C70 117.12 70 171.24 70 227 C167.35 227 264.7 227 365 227 C365 247.46 365 267.92 365 289 C267.65 289 170.3 289 70 289 C70 349.06 70 409.12 70 471 C177.91 471 285.82 471 397 471 C397 491.46 397 511.92 397 533 C265.99 533 134.98 533 0 533 C0 357.11 0 181.22 0 0 Z " fill="#000000" transform="translate(2130,1671)"/>
<path d="M0 0 C32.67 0 65.34 0 99 0 C99 307.56 99 615.12 99 932 C66.33 932 33.66 932 0 932 C0 624.44 0 316.88 0 0 Z " fill="#030303" transform="translate(1185,446)"/>
<path d="M0 0 C32.34 0 64.68 0 98 0 C98 307.23 98 614.46 98 931 C65.66 931 33.32 931 0 931 C0 623.77 0 316.54 0 0 Z " fill="#010101" transform="translate(2435,446)"/>
<path d="M0 0 C25.41 0 50.82 0 77 0 C77 307.23 77 614.46 77 931 C51.59 931 26.18 931 0 931 C0 623.77 0 316.54 0 0 Z " fill="#010101" transform="translate(2563,446)"/>
<path d="M0 0 C139.59 0 279.18 0 423 0 C423 20.79 423 41.58 423 63 C364.92 63 306.84 63 247 63 C247 218.43 247 373.86 247 534 C223.57 534 200.14 534 176 534 C176 378.57 176 223.14 176 63 C117.92 63 59.84 63 0 63 C0 42.21 0 21.42 0 0 Z " fill="#010101" transform="translate(2612,1671)"/>
<path d="M0 0 C21.12 0 42.24 0 64 0 C64 307.56 64 615.12 64 932 C42.88 932 21.76 932 0 932 C0 624.44 0 316.88 0 0 Z " fill="#040404" transform="translate(668,446)"/>
<path d="M0 0 C20.79 0 41.58 0 63 0 C63 307.56 63 615.12 63 932 C42.21 932 21.42 932 0 932 C0 624.44 0 316.88 0 0 Z " fill="#020202" transform="translate(2698,446)"/>
<path d="M0 0 C20.79 0 41.58 0 63 0 C63 307.23 63 614.46 63 931 C42.21 931 21.42 931 0 931 C0 623.77 0 316.54 0 0 Z " fill="#010101" transform="translate(1763,446)"/>
<path d="M0 0 C20.79 0 41.58 0 63 0 C63 307.23 63 614.46 63 931 C42.21 931 21.42 931 0 931 C0 623.77 0 316.54 0 0 Z " fill="#010101" transform="translate(1528,446)"/>
<path d="M0 0 C20.79 0 41.58 0 63 0 C63 307.23 63 614.46 63 931 C42.21 931 21.42 931 0 931 C0 623.77 0 316.54 0 0 Z " fill="#010101" transform="translate(1378,446)"/>
<path d="M0 0 C20.79 0 41.58 0 63 0 C63 307.23 63 614.46 63 931 C42.21 931 21.42 931 0 931 C0 623.77 0 316.54 0 0 Z " fill="#010101" transform="translate(1085,446)"/>
<path d="M0 0 C23.1 0 46.2 0 70 0 C70 155.1 70 310.2 70 470 C156.46 470 242.92 470 332 470 C332 490.46 332 510.92 332 532 C222.44 532 112.88 532 0 532 C0 356.44 0 180.88 0 0 Z " fill="#000000" transform="translate(1684,1672)"/>
<path d="M0 0 C24.605625 -0.0825 49.21125 -0.165 74.5625 -0.25 C82.26795166 -0.28641602 89.97340332 -0.32283203 97.91235352 -0.36035156 C107.48425293 -0.37841797 107.48425293 -0.37841797 111.99668884 -0.3817749 C115.07961579 -0.38543016 118.16225371 -0.40012341 121.24510193 -0.42230225 C203.24381007 -0.98553644 203.24381007 -0.98553644 231 25 C231.85078125 25.77214844 232.7015625 26.54429688 233.578125 27.33984375 C239.52923087 32.97914018 243.99737809 38.86018794 248 46 C248.53496094 46.93585938 249.06992187 47.87171875 249.62109375 48.8359375 C259.95812553 68.06642556 262.47973592 93.5373998 257.04296875 114.671875 C249.5990965 138.425355 238.474269 157.98342746 215.68212891 169.90551758 C212.82025326 171.3418683 209.91514849 172.67587786 207 174 C206.19433594 174.38929688 205.38867188 174.77859375 204.55859375 175.1796875 C199.24173007 177.56534111 193.73251833 178.88058718 188.0625 180.125 C187.35456299 180.28379639 186.64662598 180.44259277 185.91723633 180.60620117 C165.76101736 184.75081688 145.31796002 184.27180207 124.85643768 184.20256042 C120.88748372 184.19102217 116.91855593 184.19062624 112.94958496 184.18920898 C101.40387484 184.17878676 89.85818585 184.15086435 78.3125 184.125 C52.469375 184.08375 26.62625 184.0425 0 184 C0 123.28 0 62.56 0 0 Z " fill="#F8F8F8" transform="translate(623,1958)"/>
<path d="M0 0 C32.0821875 -0.061875 32.0821875 -0.061875 64.8125 -0.125 C71.51022705 -0.14320801 78.2079541 -0.16141602 85.10864258 -0.18017578 C93.42907715 -0.18920898 93.42907715 -0.18920898 97.35160828 -0.19088745 C100.03133651 -0.19391404 102.71086054 -0.20006122 105.39054871 -0.21115112 C128.32367391 -0.30178087 151.59533236 -0.22152836 174.1875 4.1875 C175.29915527 4.40035645 176.41081055 4.61321289 177.55615234 4.83251953 C190.55242449 7.49458896 202.11807777 11.87363721 212 21 C212.67160156 21.58136719 213.34320312 22.16273437 214.03515625 22.76171875 C226.29932309 34.03340966 235.21497509 52.7545918 236.203125 69.42724609 C236.28718687 72.70776071 236.32627842 75.98287215 236.31567383 79.2644043 C236.3125216 81.2985643 236.33601702 83.3312539 236.36132812 85.36523438 C236.37053685 104.21548735 230.42637104 122.422285 217 136 C194.16195258 158.2208029 160.77435265 161.19628328 130.44067383 161.11352539 C128.98754981 161.11321838 127.53442564 161.1133537 126.08130169 161.11389065 C122.22205261 161.11411458 118.36283512 161.10835742 114.50359344 161.10128021 C110.87002981 161.09554647 107.2364735 161.09531499 103.60290527 161.09460449 C93.0060994 161.08937625 82.40929929 161.07541498 71.8125 161.0625 C48.114375 161.041875 24.41625 161.02125 0 161 C0 107.87 0 54.74 0 0 Z " fill="#F8F8F8" transform="translate(623,1734)"/>
<path d="M0 0 C11.88 0 23.76 0 36 0 C36 307.56 36 615.12 36 932 C24.45 932 12.9 932 1 932 C0 931 0 931 -0.12467116 928.42616501 C-0.12451518 927.2645773 -0.1243592 926.10298959 -0.1241985 924.90620226 C-0.12547658 924.25841233 -0.12675467 923.61062241 -0.12807148 922.94320249 C-0.13116919 920.74117103 -0.12705015 918.53920936 -0.12304783 916.33718014 C-0.12378655 914.74826095 -0.12496415 913.15934191 -0.12654433 911.57042333 C-0.12963426 907.16338471 -0.12642103 902.7563689 -0.12226619 898.34933196 C-0.11884968 893.57029682 -0.12119939 888.79126414 -0.12284368 884.01222855 C-0.12492363 875.62291172 -0.12326311 867.23360197 -0.11920547 858.84428596 C-0.11318854 846.36953579 -0.11286798 833.8947901 -0.11374746 821.42003873 C-0.11506368 800.43897972 -0.1117112 779.45792386 -0.10573006 758.47686577 C-0.09982012 737.69246849 -0.09596554 716.90807251 -0.09487724 696.12367439 C-0.09477413 694.18774422 -0.09477413 694.18774422 -0.09466894 692.21270436 C-0.09433062 685.6587315 -0.09402923 679.10475864 -0.09374207 672.55078579 C-0.09313895 659.22151262 -0.09221047 645.89223948 -0.09113979 632.56296635 C-0.09108648 631.89600016 -0.09103316 631.22903397 -0.09097823 630.54185668 C-0.08835534 598.08071972 -0.08204722 565.61958362 -0.07543945 533.15844727 C-0.07314784 521.8906657 -0.07087249 510.62288412 -0.06866455 499.35510254 C-0.0685276 498.65629414 -0.06839065 497.95748575 -0.06824955 497.23750134 C-0.061908 464.76477279 -0.0581807 432.29204409 -0.05512976 399.81931508 C-0.05493169 397.71172057 -0.0547325 395.60412607 -0.05453308 393.49653156 C-0.05321332 379.52964585 -0.05193867 365.56276014 -0.05069422 351.59587443 C-0.04815855 323.14180221 -0.04533651 294.68773001 -0.04234314 266.23365784 C-0.04220585 264.92528494 -0.04206856 263.61691204 -0.04192711 262.26889148 C-0.032721 174.84592693 -0.01679851 87.42296338 0 0 Z " fill="#070707" transform="translate(2098,446)"/>
<path d="M0 0 C11.55 0 23.1 0 35 0 C35 307.56 35 615.12 35 932 C23.45 932 11.9 932 0 932 C0 624.44 0 316.88 0 0 Z " fill="#020202" transform="translate(3519,446)"/>
<path d="M0 0 C11.55 0 23.1 0 35 0 C35 307.56 35 615.12 35 932 C23.45 932 11.9 932 0 932 C0 624.44 0 316.88 0 0 Z " fill="#030303" transform="translate(3463,446)"/>
<path d="M0 0 C11.55 0 23.1 0 35 0 C35 307.56 35 615.12 35 932 C23.45 932 11.9 932 0 932 C0 624.44 0 316.88 0 0 Z " fill="#030303" transform="translate(3371,446)"/>
<path d="M0 0 C11.55 0 23.1 0 35 0 C35 307.56 35 615.12 35 932 C23.45 932 11.9 932 0 932 C0 624.44 0 316.88 0 0 Z " fill="#030303" transform="translate(2784,446)"/>
<path d="M0 0 C11.55 0 23.1 0 35 0 C35 307.56 35 615.12 35 932 C23.45 932 11.9 932 0 932 C0 624.44 0 316.88 0 0 Z " fill="#020202" transform="translate(2163,446)"/>
<path d="M0 0 C11.55 0 23.1 0 35 0 C35 307.56 35 615.12 35 932 C23.45 932 11.9 932 0 932 C0 624.44 0 316.88 0 0 Z " fill="#030303" transform="translate(2034,446)"/>
<path d="M0 0 C11.55 0 23.1 0 35 0 C35 307.56 35 615.12 35 932 C23.45 932 11.9 932 0 932 C0 624.44 0 316.88 0 0 Z " fill="#030303" transform="translate(1471,446)"/>
<path d="M0 0 C11.55 0 23.1 0 35 0 C35 307.56 35 615.12 35 932 C23.45 932 11.9 932 0 932 C0 624.44 0 316.88 0 0 Z " fill="#030303" transform="translate(1019,446)"/>
<path d="M0 0 C11.55 0 23.1 0 35 0 C35 307.23 35 614.46 35 931 C23.45 931 11.9 931 0 931 C0 623.77 0 316.54 0 0 Z " fill="#010101" transform="translate(3245,446)"/>
<path d="M0 0 C11.55 0 23.1 0 35 0 C35 307.23 35 614.46 35 931 C23.45 931 11.9 931 0 931 C0 623.77 0 316.54 0 0 Z " fill="#010101" transform="translate(2341,446)"/>
<path d="M0 0 C11.55 0 23.1 0 35 0 C35 307.23 35 614.46 35 931 C23.45 931 11.9 931 0 931 C0 623.77 0 316.54 0 0 Z " fill="#020202" transform="translate(1977,446)"/>
<path d="M0 0 C11.55 0 23.1 0 35 0 C35 307.23 35 614.46 35 931 C23.45 931 11.9 931 0 931 C0 623.77 0 316.54 0 0 Z " fill="#010101" transform="translate(1920,446)"/>
<path d="M0 0 C11.55 0 23.1 0 35 0 C35 307.23 35 614.46 35 931 C23.45 931 11.9 931 0 931 C0 623.77 0 316.54 0 0 Z " fill="#010101" transform="translate(1699,446)"/>
<path d="M0 0 C11.55 0 23.1 0 35 0 C35 307.23 35 614.46 35 931 C23.45 931 11.9 931 0 931 C0 623.77 0 316.54 0 0 Z " fill="#020202" transform="translate(788,446)"/>
<path d="M0 0 C11.55 0 23.1 0 35 0 C35 307.23 35 614.46 35 931 C23.45 931 11.9 931 0 931 C0 623.77 0 316.54 0 0 Z " fill="#020202" transform="translate(577,446)"/>
<path d="M0 0 C11.55 0 23.1 0 35 0 C35 307.23 35 614.46 35 931 C23.45 931 11.9 931 0 931 C0 623.77 0 316.54 0 0 Z " fill="#010101" transform="translate(507,446)"/>
<path d="M0 0 C0.33 0 0.66 0 1 0 C1.15855469 1.10214844 1.31710938 2.20429688 1.48046875 3.33984375 C6.05646998 33.72259933 18.00312573 61.32728608 39 84 C39.49870605 84.54253418 39.99741211 85.08506836 40.51123047 85.64404297 C64.38959562 111.33080435 97.16398129 127.21872314 132 131 C132 131.33 132 131.66 132 132 C88.44 132 44.88 132 0 132 C0 88.44 0 44.88 0 0 Z " fill="#000000" transform="translate(0,2475)"/>
<path d="M0 0 C43.56 0 87.12 0 132 0 C132 0.33 132 0.66 132 1 C130.89785156 1.15855469 129.79570312 1.31710938 128.66015625 1.48046875 C98.27740067 6.05646998 70.67271392 18.00312573 48 39 C47.45746582 39.49870605 46.91493164 39.99741211 46.35595703 40.51123047 C20.66919565 64.38959562 4.78127686 97.16398129 1 132 C0.67 132 0.34 132 0 132 C0 88.44 0 44.88 0 0 Z " fill="#000000" transform="translate(0,0)"/>
<path d="M0 0 C0.33 0 0.66 0 1 0 C1 43.56 1 87.12 1 132 C-42.56 132 -86.12 132 -131 132 C-131 131.67 -131 131.34 -131 131 C-129.89785156 130.84144531 -128.79570312 130.68289062 -127.66015625 130.51953125 C-88.21387967 124.57539149 -52.24575299 105.06580891 -28.1875 72.6875 C-12.76019501 51.11082984 -2.86825205 26.42453481 0 0 Z " fill="#000000" transform="translate(4095,2475)"/>
<path d="M0 0 C43.56 0 87.12 0 132 0 C132 43.56 132 87.12 132 132 C131.67 132 131.34 132 131 132 C130.84144531 130.89785156 130.68289062 129.79570312 130.51953125 128.66015625 C124.57586217 89.21700321 105.06699694 53.24133359 72.6875 29.1875 C50.98223239 13.69754743 26.48344325 4.05464127 0 1 C0 0.67 0 0.34 0 0 Z " fill="#000000" transform="translate(3964,0)"/>
</svg>
