<?xml version="1.0" encoding="UTF-8"?>
<svg version="1.1" xmlns="http://www.w3.org/2000/svg" width="435" height="116">
<path d="M0 0 C143.55 0 287.1 0 435 0 C435 38.28 435 76.56 435 116 C291.45 116 147.9 116 0 116 C0 77.72 0 39.44 0 0 Z " fill="#FDFDFD" transform="translate(0,0)"/>
<path d="M0 0 C12.2908672 0 22.96187499 2.64326286 34 8 C35.44632812 8.68642578 35.44632812 8.68642578 36.921875 9.38671875 C53.9148036 18.31025401 65.67189332 34.03177487 72.03515625 51.87890625 C74.78850769 60.78549652 75 68.48359876 75 78 C66.75 78 58.5 78 50 78 C49.7525 75.56625 49.505 73.1325 49.25 70.625 C47.70541801 57.45007545 42.21582323 45.02421528 31.953125 36.25 C22.13765623 28.80820668 12.15654779 26.21565478 0 25 C0 16.75 0 8.5 0 0 Z " fill="#66A303" transform="translate(359,0)"/>
<path d="M0 0 C0.66 0.66 1.32 1.32 2 2 C2.33 0.68 2.66 -0.64 3 -2 C6.3 -2 9.6 -2 13 -2 C13.09944171 4.5103722 13.17173898 11.02029483 13.21972656 17.53125 C13.23974747 19.74259145 13.26697259 21.95388058 13.30175781 24.16503906 C13.35069627 27.35755378 13.37306467 30.54936396 13.390625 33.7421875 C13.41127014 34.71864227 13.43191528 35.69509705 13.45318604 36.70114136 C13.45546346 43.78857823 12.50891311 51.42002499 7.32281494 56.71115112 C0.56352241 62.03838587 -7.66816524 62.92575942 -16 62 C-21.61381284 60.52191439 -26.4657687 58.67157013 -31 55 C-30.13586901 52.26358519 -29.43752063 50.40511169 -27.3125 48.4375 C-24.10783615 47.83121225 -22.88346847 49.34965141 -20.26171875 51.02734375 C-15.52990577 53.0622685 -10.0230886 52.70577574 -5 52 C-1.50462451 50.31138902 -0.17951472 49.26927208 2 46 C2.45139459 43.9507906 2.45139459 43.9507906 2.625 41.8125 C2.810625 39.9253125 2.810625 39.9253125 3 38 C2.071875 38.639375 1.14375 39.27875 0.1875 39.9375 C-6.12243559 44.0203995 -12.68520929 43.78930968 -20 43 C-25.94002106 41.02259825 -29.96014299 37.84155946 -33.125 32.4375 C-36.04527115 25.50185603 -36.25721376 18.37317898 -34.18359375 11.16015625 C-31.40585428 4.72393065 -27.2690807 1.03921443 -21 -2 C-13.60107028 -4.34179717 -6.91742087 -3.15531478 0 0 Z " fill="#050505" transform="translate(142,54)"/>
<path d="M0 0 C5.15810041 3.98283702 8.58592364 7.83131667 10 14.3125 C10.76190027 22.28936498 10.22290445 29.35275717 6 36.3125 C1.87365082 41.12823923 -2.67944356 43.86158804 -9.05859375 44.52734375 C-14.75423733 44.77412207 -19.81555133 43.70194991 -25 41.3125 C-25.66 40.6525 -26.32 39.9925 -27 39.3125 C-27.33 46.5725 -27.66 53.8325 -28 61.3125 C-31.3 61.3125 -34.6 61.3125 -38 61.3125 C-38 40.5225 -38 19.7325 -38 -1.6875 C-34.7 -1.6875 -31.4 -1.6875 -28 -1.6875 C-27.67 -0.3675 -27.34 0.9525 -27 2.3125 C-26.0925 1.673125 -25.185 1.03375 -24.25 0.375 C-17.04359744 -4.19829393 -7.26860447 -4.70108747 0 0 Z " fill="#050505" transform="translate(39,53.6875)"/>
<path d="M0 0 C5.11762818 2.65358498 8.17705942 5.53117826 10 11 C10.08518867 13.80426452 10.1158852 16.5829635 10.09765625 19.38671875 C10.0962413 20.20372757 10.09482635 21.02073639 10.09336853 21.86250305 C10.08777294 24.47087268 10.07522129 27.07915634 10.0625 29.6875 C10.05748443 31.45637897 10.05292162 33.22525928 10.04882812 34.99414062 C10.03780496 39.32946019 10.02054338 43.66471552 10 48 C5.38 48 0.76 48 -4 48 C-4.02505615 47.01080566 -4.0501123 46.02161133 -4.07592773 45.00244141 C-4.16997787 41.33840596 -4.27020429 37.67456115 -4.37231445 34.01074219 C-4.41567241 32.42387343 -4.45734687 30.83695776 -4.49731445 29.25 C-4.55499632 26.97121021 -4.61869638 24.69265678 -4.68359375 22.4140625 C-4.70030624 21.70255035 -4.71701874 20.99103821 -4.73423767 20.25796509 C-4.79721937 16.50339183 -4.79721937 16.50339183 -6 13 C-9.41642759 12.74984127 -9.41642759 12.74984127 -13 13 C-15.37068912 16.55603368 -15.34465108 19.17993345 -15.4140625 23.29296875 C-15.43342865 23.99899734 -15.4527948 24.70502594 -15.4727478 25.43244934 C-15.53245224 27.68401061 -15.5788914 29.93562328 -15.625 32.1875 C-15.66318829 33.71551689 -15.70224052 35.24351245 -15.7421875 36.77148438 C-15.83977081 40.51421092 -15.91940802 44.25671463 -16 48 C-20.62 48 -25.24 48 -30 48 C-30.02505615 46.97527588 -30.0501123 45.95055176 -30.07592773 44.89477539 C-30.16984484 41.10590324 -30.27010317 37.31722119 -30.37231445 33.52856445 C-30.41572297 31.88635697 -30.45739358 30.24410261 -30.49731445 28.60180664 C-30.5548744 26.24611255 -30.61860892 23.89065572 -30.68359375 21.53515625 C-30.70030624 20.79660904 -30.71701874 20.05806183 -30.73423767 19.2971344 C-30.53548013 15.85699373 -30.53548013 15.85699373 -32 13 C-34.9157691 12.58297878 -34.9157691 12.58297878 -38 13 C-40.46166047 15.34567735 -40.97527544 16.81655521 -41.43237305 20.20800781 C-41.45855713 21.44389648 -41.48474121 22.67978516 -41.51171875 23.953125 C-41.52966995 24.61334656 -41.54762115 25.27356812 -41.56611633 25.95379639 C-41.62008809 28.05246689 -41.65407043 30.15091177 -41.6875 32.25 C-41.72068495 33.67711464 -41.75517571 35.10419956 -41.79101562 36.53125 C-41.87825596 40.02086334 -41.93842726 43.50946253 -42 47 C-46.29 47 -50.58 47 -55 47 C-55 31.82 -55 16.64 -55 1 C-50.71 1 -46.42 1 -42 1 C-41.67 2.65 -41.34 4.3 -41 6 C-40.38125 5.360625 -39.7625 4.72125 -39.125 4.0625 C-35.29250037 0.34272095 -31.99682226 0.67887768 -26.84375 0.69921875 C-22.70663241 1.1367985 -20.35979716 2.61081091 -17 5 C-16.52691406 4.6390625 -16.05382812 4.278125 -15.56640625 3.90625 C-10.42357308 0.29724426 -6.28164002 -1.26796067 0 0 Z " fill="#050505" transform="translate(322,50)"/>
<path d="M0 0 C0 0.66 0 1.32 0 2 C0.66 2 1.32 2 2 2 C2 0.35 2 -1.3 2 -3 C4.97 -3 7.94 -3 11 -3 C11 11.85 11 26.7 11 42 C8.03 42 5.06 42 2 42 C2 40.35 2 38.7 2 37 C1.34 37 0.68 37 0 37 C0 37.66 0 38.32 0 39 C-7.06699527 43.26686507 -13.17030212 44.2845097 -21.3046875 42.4921875 C-28.26692218 40.20647272 -32.47462234 35.30206687 -36 29 C-36.58514434 26.02486452 -36.61964407 23.15018199 -36.5625 20.125 C-36.55299316 19.32360596 -36.54348633 18.52221191 -36.53369141 17.6965332 C-36.32068685 11.67515302 -35.39631675 7.36160898 -31 3 C-30.53078125 2.50371094 -30.0615625 2.00742187 -29.578125 1.49609375 C-20.83877367 -6.7499071 -9.67735966 -5.12465382 0 0 Z " fill="#030303" transform="translate(90,55)"/>
<path d="M0 0 C0 0.66 0 1.32 0 2 C0.66 2 1.32 2 2 2 C2 0.35 2 -1.3 2 -3 C4.97 -3 7.94 -3 11 -3 C11 11.85 11 26.7 11 42 C8.03 42 5.06 42 2 42 C2 40.35 2 38.7 2 37 C1.34 37 0.68 37 0 37 C0 37.66 0 38.32 0 39 C-7.03082985 43.24502935 -13.21130532 44.36377722 -21.3046875 42.45703125 C-27.05583444 40.49296032 -30.75778224 37.74581955 -34.3125 32.75 C-37.45675057 25.92248447 -37.16517674 16.5917616 -35.33984375 9.3984375 C-32.61303064 3.28376568 -27.74610797 -0.88121527 -21.625 -3.375 C-13.20011711 -4.82756602 -7.60206693 -4.02568084 0 0 Z " fill="#020202" transform="translate(197,55)"/>
<path d="M0 0 C5.23255906 3.86390037 8.91481223 9.21859239 10.1953125 15.62109375 C10.1953125 18.92109375 10.1953125 22.22109375 10.1953125 25.62109375 C-1.0246875 25.62109375 -12.2446875 25.62109375 -23.8046875 25.62109375 C-21.30412157 30.59731118 -21.30412157 30.59731118 -17.8046875 32.62109375 C-11.68861197 33.53376394 -7.27657939 32.1961017 -1.8046875 29.62109375 C2.1953125 29.62109375 2.1953125 29.62109375 3.6796875 30.93359375 C4.8515625 32.49609375 6.0234375 34.05859375 7.1953125 35.62109375 C5.91699817 39.59807166 3.51406518 40.87217982 0.046875 42.7890625 C-7.27614983 46.07978885 -17.11486952 45.67257928 -24.7421875 43.62109375 C-30.50122659 41.32605769 -34.21782212 36.862591 -36.90234375 31.37890625 C-40.01795639 23.00298017 -39.40607913 15.74371297 -35.8046875 7.62109375 C-32.6984465 2.55907138 -27.57167402 -1.15424808 -21.90625 -2.99609375 C-14.03865874 -4.42922376 -7.00826834 -3.9773613 0 0 Z " fill="#040404" transform="translate(373.8046875,53.37890625)"/>
<path d="M0 0 C22.44 0 44.88 0 68 0 C68.04125 10.51875 68.0825 21.0375 68.125 31.875 C68.14320801 35.19804199 68.16141602 38.52108398 68.18017578 41.94482422 C68.18601438 44.564777 68.19111143 47.18473158 68.1953125 49.8046875 C68.20053925 50.48782013 68.20576599 51.17095276 68.21115112 51.87478638 C68.22574609 53.88246127 68.22667725 55.89022131 68.22705078 57.89794922 C68.231492 59.03046112 68.23593323 60.16297302 68.24050903 61.32980347 C68 64 68 64 66 66 C65.84144531 65.12859375 65.68289063 64.2571875 65.51953125 63.359375 C61.75069557 44.11957294 52.57936355 26.32297218 36.25390625 14.76367188 C24.8819628 7.41047868 13.25534047 3.52118868 0 1 C0 0.67 0 0.34 0 0 Z " fill="#FDFDFC" transform="translate(367,0)"/>
<path d="M0 0 C3.96813945 1.73206802 7.03956817 3.97954118 10 7.125 C12.03740031 12.9825259 12.02708606 18.82731794 9.375 24.4375 C5.47379661 28.64669313 2.3348814 31.2058043 -3.5 31.5 C-9.3348814 31.2058043 -12.47379661 28.64669313 -16.375 24.4375 C-18.67768515 19.56643525 -18.77379561 15.29813119 -18 10 C-14.51997934 2.63841784 -8.29615675 -1.79879287 0 0 Z " fill="#F8F8F8" transform="translate(188,59)"/>
<path d="M0 0 C3.99232043 1.74262287 7.06616301 3.97861579 10 7.1875 C11.93950915 12.6423695 11.72233736 17.94704119 9.8125 23.375 C7.42182199 26.83736126 4.7594239 29.12028805 1 31 C-3.61891196 31.56350726 -7.09841312 31.4422879 -11.3125 29.375 C-15.07280603 26.05193885 -17.63331855 23.51064546 -18.3828125 18.37890625 C-18.56800392 13.82937048 -18.33813423 10.71528396 -16.375 6.5625 C-11.62866822 1.44145782 -7.15930278 -1.55229742 0 0 Z " fill="#F8F8F8" transform="translate(81,59)"/>
<path d="M0 0 C4.19374839 2.56969877 7.42757264 5.28271793 9 10 C9.69071671 17.11098515 9.50764209 22.30613631 5 28 C1.16303204 30.70331834 -2.25815997 31.55042238 -6.9765625 31.3515625 C-11.47657695 30.56970671 -14.91775125 28.45142706 -17.671875 24.7578125 C-20.09002339 19.7365985 -19.61599937 14.4413278 -19 9 C-15.22927573 0.89992564 -8.60523488 -1.86446756 0 0 Z " fill="#F9F9F9" transform="translate(30,59)"/>
<path d="M0 0 C4.31142745 2.23862579 7.67676187 4.71094499 10 9 C10.77719311 14.6386153 10.76717724 19.3804036 8.3125 24.5625 C4.22796649 28.8678191 1.4932021 30.19462509 -4.4375 30.5 C-8.18276761 30.39904939 -10.60535952 30.1098855 -13.5625 27.75 C-18.13741255 22.5885602 -18.44483168 18.70823801 -18.3125 11.91796875 C-17.88682701 7.94324717 -16.78293421 5.85616932 -14 3 C-9.52576109 -0.05061744 -5.29042342 -0.95227622 0 0 Z " fill="#FAFAFA" transform="translate(135,59)"/>
<path d="M0 0 C-0.33 3.3 -0.66 6.6 -1 10 C-2.66015625 10.32552083 -4.3203125 10.65104167 -5.98046875 10.9765625 C-9.38528499 12.70202063 -11.40841465 14.57747052 -13 18 C-13.7577991 22.94734019 -13.7926991 27.88037414 -13.8125 32.875 C-13.83566531 34.24483111 -13.86103488 35.61462681 -13.88867188 36.984375 C-13.94745415 40.3232084 -13.9838023 43.6607331 -14 47 C-17.3 47 -20.6 47 -24 47 C-24 31.82 -24 16.64 -24 1 C-20.7 1 -17.4 1 -14 1 C-13.67 2.98 -13.34 4.96 -13 7 C-12.13375 5.824375 -12.13375 5.824375 -11.25 4.625 C-7.50088316 0.25103036 -5.85802036 0 0 0 Z " fill="#0C0C0C" transform="translate(240,51)"/>
<path d="M0 0 C3.80470451 0.7133821 5.41196019 1.67868421 8 4.5625 C9.125 8 9.125 8 9 11.5625 C7 14.5 7 14.5 4 16.5625 C0.5 17.1875 0.5 17.1875 -3 16.5625 C-6.38121991 14.11651113 -7.76936783 12.66953441 -8.625 8.5625 C-7.58351809 3.56338683 -5.03644185 0.94433285 0 0 Z " fill="#090909" transform="translate(249,81.4375)"/>
<path d="M0 0 C3.73076703 1.30205793 5.07558463 3.4589382 7.16015625 6.75390625 C7.16015625 7.41390625 7.16015625 8.07390625 7.16015625 8.75390625 C0.56015625 8.75390625 -6.03984375 8.75390625 -12.83984375 8.75390625 C-11.83984375 3.75390625 -11.83984375 3.75390625 -9.83984375 1.37890625 C-6.18484269 -0.60088599 -4.04197726 -0.64104815 0 0 Z " fill="#E3E3E3" transform="translate(362.83984375,61.24609375)"/>
</svg>
